# Blender 3.6.4
# www.blender.org
mtllib D12.mtl
o Solid
v -0.617127 -1.284103 -0.765968
v -0.617104 -1.258571 -0.807251
v -0.575795 -1.258563 -0.837228
v -0.536533 -1.284087 -0.824454
v -0.536557 -1.310933 -0.781046
v -0.575844 -1.310941 -0.752536
v -0.021246 -1.250843 1.023746
v -0.045498 -1.276352 0.990319
v -0.012068 -1.311463 0.944349
v 0.036473 -1.311464 0.944376
v 0.044334 -1.276354 0.990369
v 0.020046 -1.250844 1.023769
v 0.981077 -0.293404 -1.250806
v 0.956810 -0.334692 -1.258718
v 0.902780 -0.334679 -1.298018
v 0.887793 -0.293381 -1.318660
v 0.929073 -0.258264 -1.296919
v 0.968328 -0.258274 -1.268365
v 1.494534 -0.304203 0.538796
v 1.494547 -0.345487 0.513264
v 1.513363 -0.335221 0.457424
v 1.528375 -0.293924 0.436799
v 1.525345 -0.260767 0.470953
v 1.510319 -0.260780 0.517110
v -1.525359 0.304175 -0.444107
v -1.510346 0.345472 -0.464732
v -1.492688 0.356944 -0.507530
v -1.492675 0.315660 -0.533062
v -1.513338 0.258819 -0.504674
v -1.528364 0.258806 -0.458517
v -0.893814 0.303632 1.313535
v -0.908801 0.344930 1.292894
v -0.944052 0.356399 1.262878
v -0.968319 0.315111 1.254966
v -0.947690 0.258269 1.283377
v -0.908436 0.258259 1.311930
v -0.023712 1.311465 -0.946557
v 0.024829 1.311464 -0.946530
v 0.050368 1.284641 -0.981649
v 0.026115 1.259132 -1.015075
v -0.032815 1.264255 -1.006210
v -0.057103 1.289765 -0.972810
v 0.575844 1.310941 0.752536
v 0.536557 1.310933 0.781046
v 0.536533 1.284087 0.824454
v 0.575795 1.258563 0.837228
v 0.617104 1.258571 0.807251
v 0.617127 1.284103 0.765968
v -0.908272 -1.311239 0.268638
v -0.893298 -1.311253 0.314812
v -0.918836 -1.284431 0.349931
v -0.958099 -1.258906 0.337157
v -0.980583 -1.250601 0.295918
v -0.956294 -1.276111 0.262519
v -1.495134 -0.345414 0.511601
v -1.495147 -0.304130 0.537133
v -1.510906 -0.260707 0.515429
v -1.525880 -0.260692 0.469255
v -1.525866 -0.304101 0.442409
v -1.510879 -0.345399 0.463051
v 1.525880 0.260693 -0.469255
v 1.510906 0.260707 -0.515429
v 1.495147 0.304130 -0.537133
v 1.495134 0.345414 -0.511601
v 1.513887 0.335147 -0.455739
v 1.528874 0.293849 -0.435098
v 0.887280 1.311257 -0.326274
v 0.902254 1.311243 -0.280101
v 0.949555 1.284401 -0.255207
v 0.973844 1.258891 -0.288607
v 0.967845 1.250613 -0.335196
v 0.928582 1.276138 -0.347970
v 0.537388 -1.284113 -0.823857
v 0.576666 -1.258591 -0.836587
v 0.617941 -1.258601 -0.806564
v 0.617917 -1.284133 -0.765280
v 0.585649 -1.310971 -0.742619
v 0.546394 -1.310962 -0.771173
v 0.949208 -1.284447 0.256263
v 0.973461 -1.258938 0.289690
v 0.957662 -1.258952 0.338222
v 0.918384 -1.284475 0.350953
v 0.892883 -1.311297 0.315806
v 0.907909 -1.311283 0.269649
v -0.918384 1.284475 -0.350953
v -0.957662 1.258952 -0.338222
v -0.967442 1.264060 -0.279436
v -0.943190 1.289569 -0.246009
v -0.901878 1.311286 -0.281105
v -0.886852 1.311300 -0.327261
v -0.537363 1.310959 0.780448
v -0.576618 1.310969 0.751895
v -0.617917 1.284133 0.765280
v -0.617941 1.258601 0.806564
v -0.585705 1.250298 0.840725
v -0.546427 1.275820 0.827995
v -0.948687 -0.344894 -1.263927
v -0.972961 -0.303605 -1.256042
v -0.957176 -0.260182 -1.277729
v -0.917890 -0.260174 -1.306239
v -0.886339 -0.293338 -1.319648
v -0.901352 -0.334636 -1.299023
v 0.025165 0.261067 -1.596147
v -0.023376 0.261068 -1.596174
v -0.048899 0.304483 -1.587883
v -0.024632 0.345771 -1.579971
v 0.026407 0.345770 -1.579943
v 0.050681 0.304480 -1.587828
v -0.050681 -0.304480 1.587828
v -0.026407 -0.345770 1.579943
v 0.024632 -0.345771 1.579971
v 0.048899 -0.304483 1.587883
v 0.010617 -0.259110 1.595188
v -0.037924 -0.259109 1.595161
v 0.979699 0.293356 1.251897
v 0.955425 0.334646 1.259782
v 0.907379 0.344886 1.293904
v 0.892367 0.303589 1.314529
v 0.906988 0.258215 1.312940
v 0.946274 0.258223 1.284430
vn -0.5261 -0.4474 0.7232
vn -0.8508 0.4472 0.2761
vn 0.0005 -0.4469 -0.8946
vn 0.5253 -0.4474 0.7238
vn -0.8505 -0.4471 -0.2770
vn 0.5261 0.4474 -0.7232
vn -0.0000 -1.0000 -0.0003
vn 0.8505 0.4471 0.2770
vn 0.8508 -0.4472 -0.2761
vn -0.0005 0.4469 0.8946
vn -0.5253 0.4474 -0.7238
vn -0.0000 1.0000 0.0003
vn -0.3566 -0.7945 -0.4916
vn -0.0004 -0.7948 0.6068
vn 0.5778 -0.1874 -0.7944
vn 0.9366 -0.1950 0.2912
vn -0.9309 0.1796 -0.3180
vn -0.5901 0.1793 0.7871
vn -0.0126 0.7902 -0.6127
vn 0.3566 0.7945 0.4916
vn -0.5871 -0.7901 0.1765
vn -0.9343 -0.1877 0.3030
vn 0.9369 0.1950 -0.2901
vn 0.5689 0.7980 -0.1989
vn 0.3500 -0.8035 -0.4815
vn 0.5772 -0.7947 0.1877
vn -0.5738 0.8003 -0.1742
vn -0.3500 0.7899 0.5036
vn -0.5655 -0.1947 -0.8014
vn 0.0006 0.1879 -0.9822
vn -0.0006 -0.1732 0.9849
vn 0.5874 0.1782 0.7894
vn -0.3095 -0.0003 0.9509
vn -0.0024 0.8265 0.5630
vn -0.5358 -0.8266 -0.1724
vn -0.7999 -0.5243 0.2920
vn 0.8108 0.0016 -0.5854
vn 0.3461 0.8091 -0.4749
vn 0.0023 -0.8729 -0.4880
vn 0.5255 -0.8338 -0.1691
vn -0.8280 0.5274 -0.1906
vn -0.5004 0.5255 0.6881
vn -0.4641 -0.5232 -0.7148
vn -0.3227 0.0276 -0.9461
vn -0.0005 -0.5236 0.8520
vn 0.7831 -0.0636 0.6186
vn 0.5355 0.5232 0.6629
vn -0.0436 0.5273 -0.8486
vn 0.8318 0.5213 -0.1908
vn -0.3056 -0.8508 0.4275
vn 0.4644 0.8730 0.1492
vn -0.4383 0.8875 0.1420
vn 0.3449 -0.8091 0.4758
vn 1.0000 -0.0000 0.0006
vn 0.5018 -0.5217 -0.6900
vn -0.9995 0.0257 0.0171
vn -0.8071 0.0022 0.5904
vn 0.8228 -0.5235 0.2213
vn 0.3464 0.0636 -0.9359
vn 0.2673 0.0616 0.9617
vn -0.8109 0.0026 -0.5851
vn -0.3088 0.8508 -0.4252
s 0
f 7//1 110//1 109//1 36//1 35//1
f 58//2 57//2 34//2 33//2 87//2 26//2 25//2
f 4//3 3//3 102//3 101//3 15//3 74//3 73//3
f 20//4 19//4 120//4 119//4 11//4 82//4 81//4
f 2//5 1//5 54//5 53//5 29//5 98//5 97//5
f 40//6 39//6 72//6 71//6 17//6 108//6 107//6
f 71//6 64//6 63//6 18//6 17//6
f 77//7 84//7 83//7 10//7 9//7
f 115//8 24//8 23//8 66//8 65//8
f 76//9 75//9 14//9 13//9 21//9 80//9 79//9
f 95//10 32//10 31//10 114//10 113//10
f 53//5 60//5 59//5 30//5 29//5
f 100//11 99//11 28//11 27//11 41//11 106//11 105//11
f 67//12 38//12 37//12 90//12 89//12
f 13//9 62//9 61//9 22//9 21//9
f 101//3 104//3 103//3 16//3 15//3
f 119//4 112//4 111//4 12//4 11//4
f 52//1 51//1 8//1 7//1 35//1 56//1 55//1
f 48//8 47//8 116//8 115//8 65//8 70//8 69//8
f 33//2 94//2 93//2 88//2 87//2
f 46//10 45//10 96//10 95//10 113//10 118//10 117//10
f 44//12 43//12 68//12 67//12 89//12 92//12 91//12
f 27//11 86//11 85//11 42//11 41//11
f 1//13 2//13 3//13 4//13 5//13 6//13
f 7//14 8//14 9//14 10//14 11//14 12//14
f 13//15 14//15 15//15 16//15 17//15 18//15
f 19//16 20//16 21//16 22//16 23//16 24//16
f 25//17 26//17 27//17 28//17 29//17 30//17
f 31//18 32//18 33//18 34//18 35//18 36//18
f 37//19 38//19 39//19 40//19 41//19 42//19
f 43//20 44//20 45//20 46//20 47//20 48//20
f 49//21 50//21 51//21 52//21 53//21 54//21
f 55//22 56//22 57//22 58//22 59//22 60//22
f 61//23 62//23 63//23 64//23 65//23 66//23
f 67//24 68//24 69//24 70//24 71//24 72//24
f 73//25 74//25 75//25 76//25 77//25 78//25
f 79//26 80//26 81//26 82//26 83//26 84//26
f 85//27 86//27 87//27 88//27 89//27 90//27
f 91//28 92//28 93//28 94//28 95//28 96//28
f 97//29 98//29 99//29 100//29 101//29 102//29
f 103//30 104//30 105//30 106//30 107//30 108//30
f 109//31 110//31 111//31 112//31 113//31 114//31
f 115//32 116//32 117//32 118//32 119//32 120//32
f 36//33 109//33 114//33 31//33
f 44//34 91//34 96//34 45//34
f 6//35 49//35 54//35 1//35
f 52//36 55//36 60//36 53//36
f 18//37 63//37 62//37 13//37
f 38//38 67//38 72//38 39//38
f 4//39 73//39 78//39 5//39
f 76//40 79//40 84//40 77//40
f 26//41 87//41 86//41 27//41
f 32//42 95//42 94//42 33//42
f 2//43 97//43 102//43 3//43
f 100//44 105//44 104//44 101//44
f 12//45 111//45 110//45 7//45
f 24//46 115//46 120//46 19//46
f 46//47 117//47 116//47 47//47
f 40//48 107//48 106//48 41//48
f 64//49 71//49 70//49 65//49
f 8//50 51//50 50//50 9//50
f 48//51 69//51 68//51 43//51
f 88//52 93//52 92//52 89//52
f 10//53 83//53 82//53 11//53
f 22//54 61//54 66//54 23//54
f 14//55 75//55 74//55 15//55
f 30//56 59//56 58//56 25//56
f 34//57 57//57 56//57 35//57
f 20//58 81//58 80//58 21//58
f 16//59 103//59 108//59 17//59
f 112//60 119//60 118//60 113//60
f 28//61 99//61 98//61 29//61
f 42//62 85//62 90//62 37//62
f 6//7 5//7 78//7 77//7 9//7 50//7 49//7
